<svg width="47" height="19" viewBox="0 0 47 19" fill="none" xmlns="http://www.w3.org/2000/svg">
<path d="M6.336 7.296C6.336 8.148 6.33 8.856 6.318 9.42C6.318 9.984 6.312 10.446 6.3 10.806C6.288 11.166 6.27 11.448 6.246 11.652C6.222 11.856 6.198 12.036 6.174 12.192C6.018 13.092 5.628 13.818 5.004 14.37C4.392 14.922 3.522 15.198 2.394 15.198C2.106 15.198 1.752 15.174 1.332 15.126C0.924 15.09 0.522 15.018 0.126 14.91C0.102 14.502 0.084 14.088 0.072 13.668C0.06 13.236 0.054 12.81 0.054 12.39C0.054 11.958 0.06 11.526 0.072 11.094C0.084 10.662 0.102 10.23 0.126 9.798C0.426 9.93 0.696 10.026 0.936 10.086C1.176 10.146 1.428 10.176 1.692 10.176C2.064 10.176 2.364 10.116 2.592 9.996C2.832 9.864 3.018 9.666 3.15 9.402C3.294 9.138 3.39 8.796 3.438 8.376C3.486 7.956 3.51 7.458 3.51 6.882V3.354H1.008V0.276H6.336V7.296ZM11.9867 15V14.046C11.6987 14.394 11.3507 14.676 10.9427 14.892C10.5347 15.096 10.1207 15.198 9.70073 15.198C9.43673 15.198 9.17873 15.156 8.92673 15.072C8.68673 15 8.46473 14.898 8.26073 14.766C8.05673 14.634 7.87673 14.478 7.72073 14.298C7.57673 14.106 7.46873 13.902 7.39673 13.686C7.34873 13.518 7.30673 13.278 7.27073 12.966C7.24673 12.642 7.23473 12.3 7.23473 11.94V4.236H9.88073V9.636C9.88073 9.996 9.96473 10.284 10.1327 10.5C10.3007 10.704 10.5287 10.806 10.8167 10.806C10.9607 10.806 11.1047 10.776 11.2487 10.716C11.4047 10.656 11.5367 10.578 11.6447 10.482C11.7647 10.386 11.8607 10.272 11.9327 10.14C12.0047 10.008 12.0407 9.87 12.0407 9.726V4.236H14.6867C14.6747 4.632 14.6627 5.052 14.6507 5.496C14.6387 5.928 14.6267 6.366 14.6147 6.81C14.6027 7.242 14.5907 7.674 14.5787 8.106C14.5787 8.538 14.5787 8.946 14.5787 9.33C14.5787 9.558 14.5787 9.9 14.5787 10.356C14.5787 10.812 14.5787 11.31 14.5787 11.85C14.5907 12.39 14.5967 12.942 14.5967 13.506C14.5967 14.07 14.5967 14.568 14.5967 15H11.9867ZM18.1245 4.236V5.19C18.3645 4.806 18.6825 4.518 19.0785 4.326C19.4865 4.134 19.9185 4.038 20.3745 4.038C20.8065 4.038 21.2025 4.134 21.5625 4.326C21.9225 4.506 22.1985 4.8 22.3905 5.208C22.6065 4.824 22.9305 4.536 23.3625 4.344C23.8065 4.14 24.2865 4.038 24.8025 4.038C25.5825 4.038 26.1765 4.29 26.5845 4.794C27.0045 5.286 27.2145 6.12 27.2145 7.296V15H24.5685V9.474C24.5685 9.03 24.4725 8.712 24.2805 8.52C24.1005 8.316 23.8905 8.214 23.6505 8.214C23.4105 8.214 23.1885 8.316 22.9845 8.52C22.7805 8.712 22.6785 8.982 22.6785 9.33V15H20.0325V9.69C20.0325 9.222 19.9245 8.88 19.7085 8.664C19.5045 8.448 19.2825 8.34 19.0425 8.34C18.8025 8.34 18.5865 8.448 18.3945 8.664C18.2145 8.868 18.1245 9.144 18.1245 9.492V15H15.5145C15.5145 14.64 15.5145 14.238 15.5145 13.794C15.5145 13.35 15.5145 12.9 15.5145 12.444C15.5265 11.988 15.5325 11.556 15.5325 11.148C15.5325 10.728 15.5325 10.362 15.5325 10.05C15.5325 9.75 15.5325 9.366 15.5325 8.898C15.5325 8.418 15.5265 7.908 15.5145 7.368C15.5145 6.828 15.5145 6.288 15.5145 5.748C15.5145 5.196 15.5145 4.692 15.5145 4.236H18.1245ZM34.3288 13.74C33.8728 14.1 33.4528 14.358 33.0688 14.514C32.6968 14.67 32.2888 14.748 31.8448 14.748C31.2448 14.748 30.6988 14.628 30.2068 14.388C29.7148 14.136 29.2888 13.794 28.9288 13.362C28.5808 12.918 28.3048 12.39 28.1008 11.778C27.9088 11.166 27.8128 10.494 27.8128 9.762C27.8128 8.97 27.9208 8.232 28.1368 7.548C28.3648 6.852 28.6708 6.246 29.0548 5.73C29.4508 5.202 29.9068 4.788 30.4228 4.488C30.9388 4.188 31.4908 4.038 32.0788 4.038C32.9548 4.038 33.7048 4.404 34.3288 5.136V4.236H36.8848V10.032C36.8848 11.1 36.8668 12.006 36.8308 12.75C36.8068 13.494 36.7648 14.082 36.7048 14.514C36.5248 15.786 36.0388 16.758 35.2468 17.43C34.4668 18.114 33.4348 18.456 32.1508 18.456C31.6108 18.456 31.0948 18.396 30.6028 18.276C30.1228 18.156 29.6788 17.982 29.2708 17.754V15.54C30.1468 15.984 31.0228 16.206 31.8988 16.206C32.6908 16.206 33.2908 16.038 33.6988 15.702C34.1188 15.366 34.3288 14.886 34.3288 14.262V13.74ZM31.2508 8.502C31.2508 8.994 31.3828 9.39 31.6468 9.69C31.9108 9.99 32.2588 10.14 32.6908 10.14C32.9188 10.14 33.1288 10.098 33.3208 10.014C33.5248 9.918 33.6988 9.792 33.8428 9.636C33.9988 9.48 34.1188 9.3 34.2028 9.096C34.2868 8.88 34.3288 8.652 34.3288 8.412C34.3288 8.184 34.2868 7.968 34.2028 7.764C34.1308 7.56 34.0228 7.386 33.8788 7.242C33.7348 7.086 33.5668 6.966 33.3748 6.882C33.1828 6.798 32.9788 6.756 32.7628 6.756C32.3308 6.756 31.9708 6.918 31.6828 7.242C31.3948 7.566 31.2508 7.986 31.2508 8.502ZM46.4804 15H44.0144V14.118C43.5824 14.466 43.1264 14.736 42.6464 14.928C42.1664 15.108 41.6984 15.198 41.2424 15.198C40.7024 15.198 40.2044 15.066 39.7484 14.802C39.2924 14.538 38.8964 14.172 38.5604 13.704C38.2364 13.224 37.9784 12.654 37.7864 11.994C37.5944 11.334 37.4984 10.614 37.4984 9.834C37.4984 9.018 37.6004 8.256 37.8044 7.548C38.0084 6.84 38.2844 6.228 38.6324 5.712C38.9924 5.184 39.4124 4.776 39.8924 4.488C40.3844 4.188 40.9124 4.038 41.4764 4.038C41.9684 4.038 42.4364 4.146 42.8804 4.362C43.3244 4.566 43.7024 4.824 44.0144 5.136V4.236H46.5704L46.4804 15ZM40.9364 8.502C40.9364 8.994 41.0684 9.39 41.3324 9.69C41.6084 9.99 41.9564 10.14 42.3764 10.14C42.8324 10.14 43.2164 9.978 43.5284 9.654C43.8524 9.33 44.0144 8.916 44.0144 8.412C44.0144 8.184 43.9724 7.968 43.8884 7.764C43.8164 7.56 43.7084 7.386 43.5644 7.242C43.4204 7.086 43.2524 6.966 43.0604 6.882C42.8684 6.798 42.6644 6.756 42.4484 6.756C42.0164 6.756 41.6564 6.918 41.3684 7.242C41.0804 7.566 40.9364 7.986 40.9364 8.502Z" fill="#F9A109"/>
</svg>
